<svg width="1022" height="354" viewBox="0 0 1022 354" fill="none" xmlns="http://www.w3.org/2000/svg">
<g filter="url(#filter0_d_1_61)">
<path d="M38 125.276V106C38 73.9445 38 57.9167 47.9584 47.9584C57.9167 38 73.9445 38 106 38H971.069C978.211 38 984 43.7894 984 50.931L977.145 102.933C976.573 107.271 976.287 109.44 975.728 111.549C975.169 113.657 974.342 115.683 972.69 119.735L966.24 135.542C964.622 139.507 963.813 141.49 963.26 143.553C962.707 145.615 962.416 147.736 961.834 151.977L961.833 151.98L958 179.897L953.793 201.175C952.898 205.701 952.45 207.964 951.704 210.14C950.958 212.316 949.923 214.377 947.853 218.501L936 242.103L932.115 248.906C926.782 258.241 915.703 262.648 905.416 259.526C900.604 258.066 896.403 255.072 893.451 251.002L887 242.103L885.384 239.301C882.703 234.652 881.362 232.327 880.407 229.844C879.453 227.36 878.888 224.717 877.757 219.431L877.756 219.43C874.542 204.403 870.267 184.701 869 179.897C867 172.31 865 143.483 863 125.276C862.573 121.39 861.662 119.146 860.481 118.059C860.417 118.086 860.348 118.115 860.276 118.144C856.13 119.814 850.452 124.079 839.096 132.609C830.529 139.045 820.426 146.871 816 151.069C809.6 157.138 800.667 183.943 797 196.586L784.848 231.157C782.929 236.617 781.969 239.347 781.484 242.186C781 245.025 781 247.919 781 253.707V280.723C781 284.224 779.916 287.639 777.896 290.498L775.507 293.882C770.585 300.853 760.52 301.589 754.636 295.408C753.553 294.271 752.677 292.955 752.046 291.518L743 270.931L737.599 255.361L737.598 255.359C735.307 248.755 734.162 245.452 733.71 242.01C733.259 238.568 733.514 235.082 734.025 228.109L737.65 178.61C737.809 176.433 737.889 175.345 737.899 174.255C737.901 173.97 737.9 173.686 737.896 173.401C737.878 172.311 737.791 171.223 737.616 169.048L734.43 129.413C733.622 119.364 725.231 111.621 715.15 111.621C708.794 111.621 702.844 114.743 699.233 119.973L691.198 131.609L691.197 131.611C689.043 134.731 687.965 136.292 687.082 137.927C684.998 141.787 683.681 146.014 683.203 150.374C683 152.222 683 154.118 683 157.911V185.063C683 190.811 683 193.685 682.522 196.505C682.044 199.325 681.097 202.039 679.204 207.466L674.957 219.636C674.32 221.461 673.526 223.228 672.585 224.917L668.021 233.1C664.921 238.658 659.055 242.103 652.691 242.103C644.643 242.103 637.626 236.63 635.666 228.825L633.276 219.306C631.822 213.516 628.066 208.572 622.877 205.62C613.684 200.389 609.55 189.331 613.058 179.353L620.673 157.689C622.188 153.38 622.342 148.709 621.115 144.309L620.772 143.081C616.627 128.213 598.609 122.456 586.611 132.165C583.594 134.607 581.295 137.822 579.961 141.466L573.681 158.616C572.814 160.984 572.381 162.168 571.793 163.437C571.206 164.707 570.682 165.631 569.635 167.48C562.994 179.2 551.95 196.586 547 196.586C542.531 196.586 532.245 210.758 524.885 222.138C522.135 226.388 516.476 227.738 512.197 225.033C509.584 223.381 508 220.505 508 217.414V175.111C508 174.262 507.856 173.418 507.574 172.616C505.168 165.77 495.419 165.963 493.285 172.9L493 173.828L488.144 193.476C486.083 201.815 485.052 205.985 483.048 209.732C481.044 213.48 478.149 216.653 472.359 222.998L470.185 225.38L470.184 225.381C468.004 227.77 466.914 228.964 465.382 230.286C463.851 231.609 462.882 232.262 460.945 233.568C455.039 237.551 447.2 242.103 443 242.103C439.076 242.103 441.797 231.674 445.382 221.778C446.216 219.476 446.633 218.326 446.801 217.81C448.798 211.696 449.084 207.181 447.875 200.864C447.773 200.331 447.607 199.592 447.275 198.115L437.637 155.218C436.375 149.603 429.836 147.044 425.098 150.312C424.371 150.813 423.73 151.43 423.202 152.138L418.377 158.596L418.377 158.596C413.808 164.714 411.523 167.773 409.99 171.183C409.043 173.288 408.314 175.483 407.813 177.735C407 181.385 407 185.203 407 192.839V229.966V253.265C407 254.381 407 254.939 406.982 255.493C406.878 258.669 406.33 261.814 405.353 264.838C405.183 265.365 404.994 265.89 404.616 266.941L397.359 287.127C395.944 291.064 392.21 293.69 388.026 293.69C383.817 293.69 380.054 291.04 378.797 287.022C376.133 278.505 373 266.823 373 260.31V222.379C373.333 208.218 373.8 176.559 373 163.207C372.139 148.844 356.081 154.556 352.413 168.469L351 173.828L347.348 190.449C346.793 192.978 346.515 194.243 346.334 195.522C346.232 196.245 346.153 196.97 346.098 197.697C346 198.985 346 200.28 346 202.87V209.989C346 210.909 346 211.368 345.988 211.817C345.808 218.636 343.581 225.243 339.597 230.78C339.335 231.144 339.056 231.51 338.5 232.241C337.944 232.973 337.665 233.339 337.403 233.703C333.419 239.24 331.192 245.847 331.012 252.666C331 253.114 331 253.574 331 254.493V261.593C331 267.648 328.999 273.534 325.308 278.334L312.033 295.597C307.515 301.472 298.623 301.368 294.244 295.389C293.422 294.266 292.818 292.999 292.463 291.653L287.868 274.224C287.792 273.935 287.754 273.791 287.715 273.647C287.223 271.845 286.583 270.087 285.802 268.39C285.74 268.255 285.677 268.12 285.55 267.85C285.24 267.193 285.085 266.864 284.939 266.536C283.1 262.404 282.103 257.947 282.008 253.426C282 253.067 282 252.703 282 251.977V234.489C282 231.49 281.556 228.507 280.684 225.638L278.174 217.388C276.814 212.917 277.755 208.063 280.686 204.424C284.465 199.734 284.921 193.101 281.136 188.417C273.148 178.53 261.279 168.196 252 173.828C245.425 177.818 239.241 174.591 235.555 167.841C228.736 155.353 220.1 140.339 216 135.897C212.933 132.573 211.126 133.648 210.118 136.132C208.349 140.494 206.797 145.154 203.047 147.999C200.422 149.99 198.523 152.789 197.642 155.964L192.575 174.22L192.557 174.285C191.53 177.999 191.143 181.861 191.41 185.706L191.415 185.773L193.317 212.708C193.686 217.935 189.545 222.379 184.305 222.379C181.582 222.379 179.004 223.608 177.288 225.722L176.625 226.54C171.095 233.357 160.233 231.49 157.297 223.217L157 222.379L154.156 216.737C149.122 206.749 146.605 201.756 145.804 196.32C145.002 190.885 145.97 185.377 147.906 174.361L151.672 152.936C151.89 151.698 151.933 150.434 151.801 149.183L149.342 125.861C148.262 115.627 133.786 114.547 131.2 124.507C131.067 125.019 130.89 125.518 130.672 125.999L109 173.828L95.79 212.858C92.9115 221.363 91.4722 225.616 91.1762 230.044C90.8801 234.473 91.7406 238.879 93.4616 247.691L95.7276 259.295L95.7276 259.295C96.6443 263.989 97.1026 266.336 97.2296 268.703C97.3089 270.182 97.2915 271.664 97.1777 273.14C96.9953 275.504 96.4822 277.84 95.456 282.511L91.9082 298.659C90.6935 304.188 87.1911 308.943 82.2707 311.742L78.6996 313.774C71.5553 317.839 62.4827 315.663 57.9592 308.8C57.3217 307.833 56.7939 306.798 56.3856 305.714L49 286.103L43 260.31L38 210.241V125.276Z" fill="#25262A"/>
</g>
<defs>
<filter id="filter0_d_1_61" x="0" y="0" width="1022" height="353.817" filterUnits="userSpaceOnUse" color-interpolation-filters="sRGB">
<feFlood flood-opacity="0" result="BackgroundImageFix"/>
<feColorMatrix in="SourceAlpha" type="matrix" values="0 0 0 0 0 0 0 0 0 0 0 0 0 0 0 0 0 0 127 0" result="hardAlpha"/>
<feOffset/>
<feGaussianBlur stdDeviation="19"/>
<feComposite in2="hardAlpha" operator="out"/>
<feColorMatrix type="matrix" values="0 0 0 0 0 0 0 0 0 0 0 0 0 0 0 0 0 0 0.25 0"/>
<feBlend mode="normal" in2="BackgroundImageFix" result="effect1_dropShadow_1_61"/>
<feBlend mode="normal" in="SourceGraphic" in2="effect1_dropShadow_1_61" result="shape"/>
</filter>
</defs>
</svg>
